# This file uses centimeters as units for non-parametric coordinates.

mtllib cereal4.mtl
g default
v -0.586886 0.003649 0.239013
v 0.586886 0.003649 0.239013
v -0.586886 1.437725 0.239013
v 0.586886 1.437725 0.239013
v -0.586886 1.437725 -0.239013
v 0.586886 1.437725 -0.239013
v -0.586886 0.003649 -0.239013
v 0.586886 0.003649 -0.239013
vt 0.079187 0.501478
vt 0.498263 0.505133
vt 0.495807 0.921865
vt 0.081643 0.925477
vt 0.491459 0.996456
vt 0.087292 0.999980
vt 0.990200 0.467127
vt 0.539455 0.467127
vt 0.539455 0.006416
vt 0.990200 0.006416
vt 0.082330 0.432561
vt 0.496323 0.436171
vt 0.567312 0.509265
vt 0.567312 0.917711
vt 0.005806 0.501867
vt 0.005806 0.925109
vn 0.000000 0.000000 1.000000
vn 0.000000 0.000000 1.000000
vn 0.000000 0.000000 1.000000
vn 0.000000 0.000000 1.000000
vn 0.000000 1.000000 0.000000
vn 0.000000 1.000000 0.000000
vn 0.000000 1.000000 0.000000
vn 0.000000 1.000000 0.000000
vn 0.000000 0.000000 -1.000000
vn 0.000000 0.000000 -1.000000
vn 0.000000 0.000000 -1.000000
vn 0.000000 0.000000 -1.000000
vn 0.000000 -1.000000 0.000000
vn 0.000000 -1.000000 0.000000
vn 0.000000 -1.000000 0.000000
vn 0.000000 -1.000000 0.000000
vn 1.000000 0.000000 0.000000
vn 1.000000 0.000000 0.000000
vn 1.000000 0.000000 0.000000
vn 1.000000 0.000000 0.000000
vn -1.000000 0.000000 0.000000
vn -1.000000 0.000000 0.000000
vn -1.000000 0.000000 0.000000
vn -1.000000 0.000000 0.000000
s off
g cereal5:pCube1
usemtl initialShadingGroup
f 1/1/1 2/2/2 4/3/3 3/4/4
f 3/4/5 4/3/6 6/5/7 5/6/8
f 5/7/9 6/8/10 8/9/11 7/10/12
f 7/11/13 8/12/14 2/2/15 1/1/16
f 2/2/17 8/13/18 6/14/19 4/3/20
f 7/15/21 1/1/22 3/4/23 5/16/24
