# This file uses centimeters as units for non-parametric coordinates.

mtllib cereal1.mtl
g default
v -0.642023 0.005853 -0.238165
v 0.626807 0.005853 -0.238165
v -0.642023 0.001193 0.221388
v 0.626807 0.001193 0.221388
v -0.642023 1.655585 0.238165
v 0.626807 1.655585 0.238165
v -0.642023 1.660245 -0.221388
v 0.626807 1.660245 -0.221388
vt 0.300914 0.094844
vt 0.709854 0.094844
vt 0.709854 0.274751
vt 0.300914 0.274751
vt 0.695347 0.793304
vt 0.304653 0.793304
vt 0.695347 0.950857
vt 0.304653 0.950857
vt 0.709854 0.814469
vt 0.300914 0.814469
vt 1.086041 0.478199
vt 1.086041 0.635751
vt -0.086042 0.478199
vt -0.086042 0.635751
vn 0.000000 -0.999949 -0.010140
vn 0.000000 -0.999949 -0.010140
vn 0.000000 -0.999949 -0.010140
vn 0.000000 -0.999949 -0.010140
vn 0.000000 -0.010140 0.999949
vn 0.000000 -0.010140 0.999949
vn 0.000000 -0.010140 0.999949
vn 0.000000 -0.010140 0.999949
vn 0.000000 0.999949 0.010140
vn 0.000000 0.999949 0.010140
vn 0.000000 0.999949 0.010140
vn 0.000000 0.999949 0.010140
vn 0.000000 0.010140 -0.999949
vn 0.000000 0.010140 -0.999949
vn 0.000000 0.010140 -0.999949
vn 0.000000 0.010140 -0.999949
vn 1.000000 0.000000 0.000000
vn 1.000000 0.000000 0.000000
vn 1.000000 0.000000 0.000000
vn 1.000000 0.000000 0.000000
vn -1.000000 0.000000 0.000000
vn -1.000000 0.000000 0.000000
vn -1.000000 0.000000 0.000000
vn -1.000000 0.000000 0.000000
s off
g cereal1:pCube1
usemtl initialShadingGroup
f 1/1/1 2/2/2 4/3/3 3/4/4
f 3/4/5 4/3/6 6/5/7 5/6/8
f 5/6/9 6/5/10 8/7/11 7/8/12
f 7/8/13 8/7/14 2/9/15 1/10/16
f 2/2/17 8/11/18 6/12/19 4/3/20
f 7/13/21 1/1/22 3/4/23 5/14/24
