# This file uses centimeters as units for non-parametric coordinates.

mtllib cereal3.mtl
g default
v -0.666500 0.002099 0.274000
v 0.666500 0.002099 0.274000
v -0.666500 1.824099 0.274000
v 0.666500 1.824099 0.274000
v -0.666500 1.824099 -0.274000
v 0.666500 1.824099 -0.274000
v -0.666500 0.002099 -0.274000
v 0.666500 0.002099 -0.274000
vt 0.510186 0.788833
vt 0.510186 0.256415
vt 0.865972 0.256415
vt 0.865972 0.788833
vt 0.506338 0.916102
vt 0.506338 0.796472
vt 0.868054 0.796472
vt 0.868054 0.916102
vt 0.367151 0.262515
vt 0.367151 0.793187
vt 0.008986 0.793187
vt 0.008986 0.262515
vt 0.507450 0.252880
vt 0.507450 0.150511
vt 0.868497 0.150511
vt 0.868497 0.252880
vt 0.873639 0.788203
vt 0.873638 0.260769
vt 0.989283 0.260769
vt 0.989283 0.788203
vt 0.368479 0.789172
vt 0.368479 0.260625
vt 0.509115 0.260625
vt 0.509115 0.789172
vn 0.000000 0.000000 1.000000
vn 0.000000 0.000000 1.000000
vn 0.000000 0.000000 1.000000
vn 0.000000 0.000000 1.000000
vn 0.000000 1.000000 0.000000
vn 0.000000 1.000000 0.000000
vn 0.000000 1.000000 0.000000
vn 0.000000 1.000000 0.000000
vn 0.000000 0.000000 -1.000000
vn 0.000000 0.000000 -1.000000
vn 0.000000 0.000000 -1.000000
vn 0.000000 0.000000 -1.000000
vn 0.000000 -1.000000 0.000000
vn 0.000000 -1.000000 0.000000
vn 0.000000 -1.000000 0.000000
vn 0.000000 -1.000000 0.000000
vn 1.000000 0.000000 0.000000
vn 1.000000 0.000000 0.000000
vn 1.000000 0.000000 0.000000
vn 1.000000 0.000000 0.000000
vn -1.000000 0.000000 0.000000
vn -1.000000 0.000000 0.000000
vn -1.000000 0.000000 0.000000
vn -1.000000 0.000000 0.000000
s off
g cereal4:pCube1
usemtl initialShadingGroup
f 3/1/1 1/2/2 2/3/3 4/4/4
f 5/5/5 3/6/6 4/7/7 6/8/8
f 7/9/9 5/10/10 6/11/11 8/12/12
f 1/13/13 7/14/14 8/15/15 2/16/16
f 4/17/17 2/18/18 8/19/19 6/20/20
f 5/21/21 7/22/22 1/23/23 3/24/24
