# This file uses centimeters as units for non-parametric coordinates.

mtllib characterarm.mtl
g default
v -0.350000 -2.250000 0.350000
v 0.350000 -2.250000 0.350000
v -0.350000 0.450000 0.350000
v 0.350000 0.450000 0.350000
v -0.350000 0.450000 -0.350000
v 0.350000 0.450000 -0.350000
v -0.350000 -2.250000 -0.350000
v 0.350000 -2.250000 -0.350000
v -0.350000 -1.728410 0.350000
v -0.350000 -1.728410 -0.350000
v 0.350000 -1.728410 -0.350000
v 0.350000 -1.728410 0.350000
vt 0.606210 0.117717
vt 0.535552 0.117717
vt 0.606210 0.459764
vt 0.535552 0.459764
vt 0.830004 0.035819
vt 0.900662 0.035819
vt 0.900662 0.106476
vt 0.830004 0.106476
vt 0.609227 0.377866
vt 0.679885 0.377866
vt 0.609227 0.035819
vt 0.679885 0.035819
vt 0.753477 0.117717
vt 0.682820 0.117717
vt 0.753477 0.459764
vt 0.682820 0.459764
vt 0.827070 0.117717
vt 0.756412 0.117717
vt 0.827070 0.459764
vt 0.756412 0.459764
vt 0.051518 0.535608
vt 0.182433 0.535608
vt 0.182433 0.687350
vt 0.051518 0.687350
vt 0.185430 0.535608
vt 0.316345 0.535608
vt 0.316345 0.687350
vt 0.185430 0.687350
vt 0.051518 0.842260
vt 0.182433 0.842260
vt 0.182433 0.973174
vt 0.051518 0.973174
vt 0.315959 0.688934
vt 0.446874 0.688934
vt 0.446874 0.840676
vt 0.315959 0.840676
vt 0.182610 0.688934
vt 0.313524 0.688934
vt 0.313524 0.840676
vt 0.182610 0.840676
vn 0.000000 0.000000 1.000000
vn 0.000000 0.000000 1.000000
vn 0.000000 0.000000 1.000000
vn 0.000000 0.000000 1.000000
vn 0.000000 1.000000 0.000000
vn 0.000000 1.000000 0.000000
vn 0.000000 1.000000 0.000000
vn 0.000000 1.000000 0.000000
vn 0.000000 0.000000 -1.000000
vn 0.000000 0.000000 -1.000000
vn 0.000000 0.000000 -1.000000
vn 0.000000 0.000000 -1.000000
vn 0.000000 -1.000000 0.000000
vn 0.000000 -1.000000 0.000000
vn 0.000000 -1.000000 0.000000
vn 0.000000 -1.000000 0.000000
vn 1.000000 0.000000 0.000000
vn 1.000000 0.000000 0.000000
vn 1.000000 0.000000 0.000000
vn 1.000000 0.000000 0.000000
vn -1.000000 0.000000 0.000000
vn -1.000000 0.000000 0.000000
vn -1.000000 0.000000 0.000000
vn -1.000000 0.000000 0.000000
vn -1.000000 0.000000 0.000000
vn -1.000000 0.000000 0.000000
vn 0.000000 0.000000 -1.000000
vn 0.000000 0.000000 -1.000000
vn 1.000000 0.000000 0.000000
vn 1.000000 0.000000 0.000000
vn 0.000000 0.000000 1.000000
vn 0.000000 0.000000 1.000000
s 1
g pCube13
usemtl lambert8SG
f 1/21/1 2/22/2 12/23/3 9/24/4
s off
f 3/5/5 4/6/6 6/7/7 5/8/8
s 2
f 10/25/9 11/26/10 8/27/11 7/28/12
s off
f 7/29/13 8/30/14 2/31/15 1/32/16
s 3
f 2/33/17 8/34/18 11/35/19 12/36/20
s 4
f 7/37/21 1/38/22 9/39/23 10/40/24
f 10/18/24 9/17/23 3/19/25 5/20/26
s 2
f 5/11/27 6/12/28 11/10/10 10/9/9
s 3
f 12/14/20 11/13/19 6/15/29 4/16/30
s 1
f 9/2/4 12/1/3 4/3/31 3/4/32
