# This file uses centimeters as units for non-parametric coordinates.

mtllib lift.mtl
g default
v -4.024513 -4.507490 3.483693
v 3.975487 -4.507490 3.483693
v -4.024513 -3.507490 3.483693
v 3.975487 -3.507490 3.483693
v -4.024513 -3.507490 -3.516307
v 3.975487 -3.507490 -3.516307
v -4.024513 -4.507490 -3.516307
v 3.975487 -4.507490 -3.516307
v 2.975487 -3.507490 -3.516307
v 2.975487 -4.507490 -3.516307
v 2.975487 -4.507490 3.483693
v 2.975487 -3.507490 3.483693
v -3.024513 -3.507490 -3.516307
v -3.024513 -4.507490 -3.516307
v -3.024513 -4.507490 3.483693
v -3.024513 -3.507490 3.483693
v -4.024513 -3.507490 -2.516307
v -4.024513 -4.507490 -2.516307
v -3.024513 -4.507490 -2.516307
v 2.975487 -4.507490 -2.516307
v 3.975487 -4.507490 -2.516307
v 3.975487 -3.507490 -2.516307
v 2.975487 -3.507490 -2.516307
v -3.024513 -3.507490 -2.516307
v -4.024513 -3.507490 2.483693
v -4.024513 -4.507490 2.483693
v -3.024513 -4.507490 2.483693
v 2.975487 -4.507490 2.483693
v 3.975487 -4.507490 2.483693
v 3.975487 -3.507490 2.483693
v 2.975487 -3.507490 2.483693
v -3.024513 -3.507490 2.483693
v -4.024513 4.492509 3.483693
v -3.024513 4.492509 3.483693
v -3.024513 4.492509 2.483693
v -4.024513 4.492509 2.483693
v 2.975487 4.492509 3.483693
v 2.975487 4.492509 2.483693
v 3.975487 4.492509 3.483693
v 3.975487 4.492509 2.483693
v 2.975487 4.492509 -2.516307
v 2.975487 4.492509 -3.516307
v 3.975487 4.492509 -2.516307
v 3.975487 4.492509 -3.516307
v -3.024513 4.492509 -2.516307
v -3.024513 4.492509 -3.516307
v -4.024513 4.492509 -2.516307
v -4.024513 4.492509 -3.516307
v -3.024513 3.492510 -2.516307
v -3.024513 3.492510 2.483693
v 2.975487 3.492510 2.483693
v 2.975487 3.492510 -2.516307
v 1.975487 4.492509 3.483693
v 1.975487 4.492509 2.483693
v 1.975487 3.492510 2.483693
v 1.975487 -3.507490 2.483693
v 1.975487 -3.507490 -2.516307
v 1.975487 3.492510 -2.516307
v 1.975487 4.492509 -2.516307
v 1.975487 4.492509 -3.516307
v 1.975487 -3.507490 -3.516307
v 1.975487 -4.507490 -3.516307
v 1.975487 -4.507490 -2.516307
v 1.975487 -4.507490 2.483693
v 1.975487 -4.507490 3.483693
v 1.975487 -3.507490 3.483693
v -2.024513 4.492509 3.483693
v -2.024513 4.492509 2.483693
v -2.024513 3.492510 2.483693
v -2.024513 -3.507490 2.483693
v -2.024513 -3.507490 -2.516307
v -2.024513 3.492510 -2.516307
v -2.024513 4.492509 -2.516307
v -2.024513 4.492509 -3.516307
v -2.024513 -3.507490 -3.516307
v -2.024513 -4.507490 -3.516307
v -2.024513 -4.507490 -2.516307
v -2.024513 -4.507490 2.483693
v -2.024513 -4.507490 3.483693
v -2.024513 -3.507490 3.483693
v -2.024513 2.492510 3.483693
v -3.024513 2.492510 3.483693
v -4.024513 2.492510 3.483693
v -4.024513 2.492510 2.483693
v -4.024513 2.492510 -2.516307
v -4.024513 2.492510 -3.516307
v -3.024513 2.492510 -3.516307
v -2.024513 2.492510 -3.516307
v 1.975487 2.492510 -3.516307
v 2.975487 2.492510 -3.516307
v 3.975487 2.492510 -3.516307
v 3.975487 2.492510 -2.516307
v 3.975487 2.492510 2.483693
v 3.975487 2.492510 3.483693
v 2.975487 2.492510 3.483693
v 1.975487 2.492510 3.483693
v -2.024513 2.492510 -2.516307
v -3.024513 2.492510 -2.516307
v -3.024513 2.492510 2.483693
v -2.024513 2.492510 2.483693
v 1.975487 2.492510 2.483693
v 2.975487 2.492510 2.483693
v 2.975487 2.492510 -2.516307
v 1.975487 2.492510 -2.516307
v -2.024513 -4.507490 4.483693
v 1.975487 -4.507490 4.483693
vt 0.375000 0.000000
vt 0.625000 0.000000
vt 0.375000 0.250000
vt 0.625000 0.250000
vt 0.375000 0.500000
vt 0.625000 0.500000
vt 0.375000 0.750000
vt 0.625000 0.750000
vt 0.375000 1.000000
vt 0.625000 1.000000
vt 0.875000 0.000000
vt 0.875000 0.250000
vt 0.125000 0.000000
vt 0.125000 0.250000
vt 0.541667 0.500000
vt 0.541667 0.750000
vt 0.541667 0.000000
vt 0.541667 1.000000
vt 0.541667 0.250000
vt 0.458333 0.500000
vt 0.458333 0.750000
vt 0.458333 0.000000
vt 0.458333 1.000000
vt 0.458333 0.250000
vt 0.208333 0.250000
vt 0.375000 0.416667
vt 0.208333 0.000000
vt 0.375000 0.833333
vt 0.458333 0.833333
vt 0.541667 0.833333
vt 0.625000 0.833333
vt 0.791667 0.000000
vt 0.625000 0.416667
vt 0.791667 0.250000
vt 0.541667 0.416667
vt 0.458333 0.416667
vt 0.291667 0.250000
vt 0.375000 0.333333
vt 0.291667 0.000000
vt 0.375000 0.916667
vt 0.458333 0.916667
vt 0.541667 0.916667
vt 0.625000 0.916667
vt 0.708333 0.000000
vt 0.625000 0.333333
vt 0.708333 0.250000
vt 0.541667 0.333333
vt 0.458333 0.333333
vt 0.375000 0.250000
vt 0.458333 0.250000
vt 0.375000 0.333333
vt 0.541667 0.250000
vt 0.625000 0.250000
vt 0.625000 0.333333
vt 0.541667 0.333333
vt 0.458333 0.333333
vt 0.625000 0.416667
vt 0.625000 0.500000
vt 0.541667 0.500000
vt 0.458333 0.416667
vt 0.541667 0.416667
vt 0.458333 0.500000
vt 0.375000 0.500000
vt 0.375000 0.416667
vt 0.458333 0.416667
vt 0.458333 0.333333
vt 0.541667 0.333333
vt 0.541667 0.416667
vt 0.513889 0.250000
vt 0.513889 0.333333
vt 0.513889 0.333333
vt 0.513889 0.333333
vt 0.513889 0.416667
vt 0.513889 0.416667
vt 0.513889 0.416667
vt 0.513889 0.500000
vt 0.513889 0.500000
vt 0.513889 0.750000
vt 0.513889 0.833333
vt 0.513889 0.916667
vt 0.513889 0.000000
vt 0.513889 1.000000
vt 0.513889 0.250000
vt 0.486111 0.250000
vt 0.486111 0.333333
vt 0.486111 0.333333
vt 0.486111 0.333333
vt 0.486111 0.416667
vt 0.486111 0.416667
vt 0.486111 0.416667
vt 0.486111 0.500000
vt 0.486111 0.500000
vt 0.486111 0.750000
vt 0.486111 0.833333
vt 0.486111 0.916667
vt 0.486111 0.000000
vt 0.486111 1.000000
vt 0.486111 0.250000
vt 0.486111 0.250000
vt 0.458333 0.250000
vt 0.375000 0.250000
vt 0.375000 0.333333
vt 0.375000 0.416667
vt 0.375000 0.500000
vt 0.458333 0.500000
vt 0.486111 0.500000
vt 0.513889 0.500000
vt 0.541667 0.500000
vt 0.625000 0.500000
vt 0.625000 0.416667
vt 0.625000 0.333333
vt 0.625000 0.250000
vt 0.541667 0.250000
vt 0.513889 0.250000
vt 0.486111 0.416667
vt 0.458333 0.416667
vt 0.458333 0.333333
vt 0.486111 0.333333
vt 0.513889 0.333333
vt 0.541667 0.333333
vt 0.541667 0.416667
vt 0.513889 0.416667
vt 0.486111 0.000000
vt 0.513889 0.000000
vn 0.000000 0.000000 1.000000
vn 0.000000 0.000000 1.000000
vn 0.000000 0.000000 1.000000
vn 0.000000 0.000000 1.000000
vn 0.000000 1.000000 0.000000
vn 0.000000 1.000000 0.000000
vn 0.000000 1.000000 0.000000
vn 0.000000 1.000000 0.000000
vn 0.000000 0.000000 -1.000000
vn 0.000000 0.000000 -1.000000
vn 0.000000 0.000000 -1.000000
vn 0.000000 0.000000 -1.000000
vn 0.000000 -1.000000 0.000000
vn 0.000000 -1.000000 0.000000
vn 0.000000 -1.000000 0.000000
vn 0.000000 -1.000000 0.000000
vn 1.000000 0.000000 0.000000
vn 1.000000 0.000000 0.000000
vn 1.000000 0.000000 0.000000
vn 1.000000 0.000000 0.000000
vn -1.000000 0.000000 0.000000
vn -1.000000 0.000000 0.000000
vn -1.000000 0.000000 0.000000
vn -1.000000 0.000000 0.000000
vn 0.000000 0.000000 -1.000000
vn 0.000000 0.000000 -1.000000
vn 0.000000 0.000000 -1.000000
vn 0.000000 0.000000 -1.000000
vn 0.000000 -1.000000 0.000000
vn 0.000000 -1.000000 0.000000
vn 0.000000 -1.000000 0.000000
vn 0.000000 -1.000000 0.000000
vn 0.000000 0.000000 1.000000
vn 0.000000 0.000000 1.000000
vn 0.000000 0.000000 1.000000
vn 0.000000 0.000000 1.000000
vn 0.000000 1.000000 0.000000
vn 0.000000 1.000000 0.000000
vn 0.000000 1.000000 0.000000
vn 0.000000 1.000000 0.000000
vn 0.000000 0.000000 -1.000000
vn 0.000000 0.000000 -1.000000
vn 0.000000 -1.000000 0.000000
vn 0.000000 -1.000000 0.000000
vn 0.000000 0.000000 1.000000
vn 0.000000 0.000000 1.000000
vn 0.000000 1.000000 0.000000
vn 0.000000 1.000000 0.000000
vn -1.000000 0.000000 0.000000
vn -1.000000 0.000000 0.000000
vn -1.000000 0.000000 0.000000
vn -1.000000 0.000000 0.000000
vn 0.000000 -1.000000 0.000000
vn 0.000000 -1.000000 0.000000
vn 0.000000 -1.000000 0.000000
vn 0.000000 -1.000000 0.000000
vn 0.000000 -1.000000 0.000000
vn 0.000000 -1.000000 0.000000
vn 0.000000 -1.000000 0.000000
vn 0.000000 -1.000000 0.000000
vn 0.000000 -1.000000 0.000000
vn 0.000000 -1.000000 0.000000
vn 1.000000 0.000000 0.000000
vn 1.000000 0.000000 0.000000
vn 1.000000 0.000000 0.000000
vn 1.000000 0.000000 0.000000
vn 0.000000 1.000000 0.000000
vn 0.000000 1.000000 0.000000
vn 0.000000 1.000000 0.000000
vn 0.000000 1.000000 0.000000
vn 0.000000 1.000000 0.000000
vn 0.000000 1.000000 0.000000
vn 0.000000 1.000000 0.000000
vn 0.000000 1.000000 0.000000
vn 0.000000 1.000000 0.000000
vn 0.000000 1.000000 0.000000
vn 0.000000 1.000000 0.000000
vn 0.000000 1.000000 0.000000
vn 0.000000 1.000000 0.000000
vn 0.000000 1.000000 0.000000
vn 0.000000 0.000000 1.000000
vn 0.000000 0.000000 1.000000
vn -1.000000 0.000000 0.000000
vn -1.000000 0.000000 0.000000
vn 0.000000 0.000000 1.000000
vn 0.000000 0.000000 1.000000
vn 1.000000 0.000000 0.000000
vn 1.000000 0.000000 0.000000
vn 0.000000 0.000000 1.000000
vn 0.000000 0.000000 -1.000000
vn 0.000000 0.000000 -1.000000
vn 0.000000 0.000000 -1.000000
vn 0.000000 0.000000 -1.000000
vn 1.000000 0.000000 0.000000
vn 1.000000 0.000000 0.000000
vn 0.000000 0.000000 -1.000000
vn 0.000000 0.000000 -1.000000
vn 0.000000 0.000000 1.000000
vn 0.000000 0.000000 1.000000
vn 0.000000 0.000000 1.000000
vn 0.000000 0.000000 1.000000
vn 0.000000 0.000000 -1.000000
vn 0.000000 0.000000 -1.000000
vn 0.000000 0.000000 -1.000000
vn -1.000000 0.000000 0.000000
vn -1.000000 0.000000 0.000000
vn -1.000000 0.000000 0.000000
vn -1.000000 0.000000 0.000000
vn -1.000000 0.000000 0.000000
vn -1.000000 0.000000 0.000000
vn 1.000000 0.000000 0.000000
vn 1.000000 0.000000 0.000000
vn 1.000000 0.000000 0.000000
vn 1.000000 0.000000 0.000000
vn 0.000000 1.000000 0.000000
vn 0.000000 1.000000 0.000000
vn 0.000000 0.000000 -1.000000
vn 0.000000 0.000000 -1.000000
vn 0.000000 0.000000 -1.000000
vn 0.000000 0.000000 -1.000000
vn 0.000000 1.000000 0.000000
vn 0.000000 1.000000 0.000000
vn 0.000000 1.000000 0.000000
vn 0.000000 1.000000 0.000000
vn 0.000000 0.000000 1.000000
vn 0.000000 0.000000 1.000000
vn 0.000000 0.000000 1.000000
vn 0.000000 0.000000 1.000000
vn 0.000000 1.000000 0.000000
vn 0.000000 1.000000 0.000000
vn 0.000000 0.000000 -1.000000
vn 0.000000 0.000000 -1.000000
vn 0.000000 0.000000 -1.000000
vn 0.000000 -1.000000 0.000000
vn 0.000000 -1.000000 0.000000
vn 0.000000 -1.000000 0.000000
vn 0.000000 -1.000000 0.000000
vn 0.000000 0.000000 1.000000
vn 0.000000 0.000000 1.000000
vn 0.000000 0.000000 1.000000
vn 0.000000 0.000000 1.000000
vn 0.000000 0.000000 1.000000
vn 0.000000 0.000000 1.000000
vn -1.000000 0.000000 0.000000
vn -1.000000 0.000000 0.000000
vn -1.000000 0.000000 0.000000
vn -1.000000 0.000000 0.000000
vn 0.000000 0.000000 -1.000000
vn 0.000000 0.000000 -1.000000
vn 0.000000 0.000000 -1.000000
vn 0.000000 0.000000 -1.000000
vn 0.000000 0.000000 -1.000000
vn 0.000000 0.000000 -1.000000
vn 1.000000 0.000000 0.000000
vn 1.000000 0.000000 0.000000
vn 1.000000 0.000000 0.000000
vn 1.000000 0.000000 0.000000
vn 0.000000 0.000000 1.000000
vn 0.000000 0.000000 1.000000
vn 0.000000 0.000000 1.000000
vn 0.000000 0.000000 1.000000
vn 0.000000 0.000000 1.000000
vn 1.000000 0.000000 0.000000
vn 1.000000 0.000000 0.000000
vn 0.000000 0.000000 -1.000000
vn 0.000000 0.000000 -1.000000
vn 0.000000 0.000000 -1.000000
vn 0.000000 0.000000 -1.000000
vn -1.000000 0.000000 0.000000
vn -1.000000 0.000000 0.000000
vn 0.000000 0.000000 1.000000
vn 0.000000 0.000000 1.000000
vn 1.000000 0.000000 0.000000
vn 1.000000 0.000000 0.000000
vn 1.000000 0.000000 0.000000
vn 1.000000 0.000000 0.000000
vn 0.000000 -1.000000 0.000000
vn 0.000000 -1.000000 0.000000
vn 0.000000 -1.000000 0.000000
vn 0.000000 -1.000000 0.000000
vn -1.000000 0.000000 0.000000
vn -1.000000 0.000000 0.000000
vn -1.000000 0.000000 0.000000
vn -1.000000 0.000000 0.000000
vn 0.000000 1.000000 0.000000
vn 0.000000 1.000000 0.000000
vn 0.000000 -1.000000 0.000000
vn 0.000000 -1.000000 0.000000
vn 0.000000 -1.000000 0.000000
vn 0.000000 -1.000000 0.000000
vn 0.000000 -1.000000 0.000000
vn 0.000000 -1.000000 0.000000
vn 1.000000 0.000000 0.000000
vn 1.000000 0.000000 0.000000
vn 1.000000 0.000000 0.000000
vn -1.000000 0.000000 0.000000
vn -1.000000 0.000000 0.000000
vn -1.000000 0.000000 0.000000
vn 0.000000 0.707107 0.707107
vn 0.000000 0.707107 0.707107
vn 0.000000 0.707107 0.707107
vn 0.000000 0.707107 0.707107
s 1
g pCube4
usemtl Slope:Slope:lambert2SG
f 1/1/1 15/22/2 16/24/3 3/3/4
s 2
f 33/49/5 34/50/6 35/48/7 36/51/8
s 3
f 5/5/9 13/20/10 14/21/11 7/7/12
s 4
f 26/40/13 27/41/14 15/23/15 1/9/16
s 5
f 2/2/17 29/44/18 30/46/19 4/4/20
s 6
f 26/39/21 1/1/22 3/3/23 25/37/24
s 3
f 9/15/25 6/6/26 8/8/27 10/16/28
s 4
f 11/18/29 28/42/30 29/43/31 2/10/32
s 1
f 12/19/33 11/17/34 2/2/35 4/4/36
s 2
f 38/47/37 37/52/38 39/53/39 40/54/40
s 3
f 13/20/10 75/92/41 76/93/42 14/21/11
s 4
f 15/23/15 27/41/14 78/95/43 79/97/44
s 1
f 16/24/3 15/22/2 79/96/45 80/98/46
s 2
f 35/56/7 34/50/6 67/84/47 68/85/48
s 6
f 7/13/49 18/27/50 17/25/51 5/14/52
s 4
f 7/7/53 14/21/54 19/29/55 18/28/56
f 77/94/57 19/29/55 14/21/54 76/93/58
f 21/31/59 20/30/60 10/16/61 8/8/62
s 5
f 22/34/63 21/32/64 8/11/65 6/12/66
s 2
f 42/59/67 41/35/68 43/57/69 44/58/70
f 46/62/71 45/60/72 73/90/73 74/91/74
f 47/64/75 45/60/72 46/62/71 48/63/76
s 6
f 18/27/50 26/39/21 25/37/24 17/25/51
s 4
f 18/28/56 19/29/55 27/41/14 26/40/13
f 78/95/43 27/41/14 19/29/55 77/94/57
f 29/43/31 28/42/30 20/30/60 21/31/59
s 5
f 30/46/19 29/44/18 21/32/64 22/34/63
s 2
f 41/61/68 38/55/37 40/54/40 43/57/69
s 14
f 24/36/77 32/48/78 70/87/79 71/88/80
s 2
f 36/51/8 35/56/7 45/60/72 47/64/75
s 1
f 3/3/4 16/24/3 82/100/81 83/101/82
s 6
f 25/38/24 3/3/23 83/101/83 84/102/84
s 1
f 12/19/33 4/4/36 94/112/85 95/113/86
s 5
f 4/4/20 30/45/19 93/111/87 94/112/88
s 1
f 16/24/3 80/98/46 81/99/89 82/100/81
s 15
f 70/87/90 32/48/91 99/117/92 100/118/93
s 5
f 22/33/63 6/6/66 91/109/94 92/110/95
s 3
f 6/6/26 9/15/25 90/108/96 91/109/97
s 16
f 24/36/98 71/88/99 97/115/100 98/116/101
s 3
f 75/92/41 13/20/10 87/105/102 88/106/103
f 13/20/10 5/5/9 86/104/104 87/105/102
s 6
f 5/5/52 17/26/51 85/103/105 86/104/106
s 17
f 23/35/107 31/47/108 102/120/109 103/121/110
s 5
f 30/45/19 22/33/63 92/110/95 93/111/87
s 18
f 32/48/111 24/36/112 98/116/113 99/117/114
s 6
f 17/26/51 25/38/24 84/102/84 85/103/105
s 2
f 54/70/115 53/69/116 37/52/38 38/55/37
s 15
f 31/47/117 56/72/118 101/119/119 102/120/120
s 14
f 57/73/121 56/72/122 31/47/123 23/35/124
s 16
f 104/122/125 57/73/126 23/35/127 103/121/128
s 2
f 60/76/129 59/75/130 41/61/68 42/59/67
s 3
f 9/15/25 61/77/131 89/107/132 90/108/96
f 62/78/133 61/77/131 9/15/25 10/16/28
s 4
f 20/30/60 63/79/134 62/78/135 10/16/61
f 28/42/30 64/80/136 63/79/134 20/30/60
f 65/82/137 64/80/136 28/42/30 11/18/29
s 1
f 66/83/138 65/81/139 11/17/34 12/19/33
f 96/114/140 66/83/138 12/19/33 95/113/86
s 2
f 68/85/48 67/84/47 53/69/116 54/70/115
s 14
f 71/88/80 70/87/79 56/72/122 57/73/121
s 16
f 104/122/125 97/115/100 71/88/99 57/73/126
s 2
f 74/91/74 73/90/73 59/75/130 60/76/129
s 3
f 61/77/131 75/92/41 88/106/103 89/107/132
f 76/93/42 75/92/41 61/77/131 62/78/133
s 4
f 63/79/134 77/94/57 76/93/58 62/78/135
f 64/80/136 78/95/43 77/94/57 63/79/134
f 79/97/44 78/95/43 64/80/136 65/82/137
s 1
f 82/100/81 81/99/89 67/84/141 34/50/142
f 83/101/82 82/100/81 34/50/142 33/49/143
s 6
f 84/102/84 83/101/83 33/49/144 36/51/145
f 85/103/105 84/102/84 36/51/145 47/64/146
f 86/104/106 85/103/105 47/64/146 48/63/147
s 3
f 87/105/102 86/104/104 48/63/148 46/62/149
f 88/106/103 87/105/102 46/62/149 74/91/150
f 89/107/132 88/106/103 74/91/150 60/76/151
f 90/108/96 89/107/132 60/76/151 42/59/152
f 91/109/97 90/108/96 42/59/152 44/58/153
s 5
f 92/110/95 91/109/94 44/58/154 43/57/155
f 93/111/87 92/110/95 43/57/155 40/54/156
f 94/112/88 93/111/87 40/54/156 39/53/157
s 1
f 95/113/86 94/112/85 39/53/158 37/52/159
f 53/69/160 96/114/140 95/113/86 37/52/159
f 67/84/141 81/99/89 96/114/140 53/69/160
s 16
f 98/116/101 97/115/100 72/89/161 49/65/162
s 18
f 99/117/114 98/116/113 49/65/163 50/66/164
s 15
f 100/118/93 99/117/92 50/66/165 69/86/166
f 101/119/119 100/118/93 69/86/166 55/71/167
f 102/120/120 101/119/119 55/71/167 51/67/168
s 17
f 103/121/110 102/120/109 51/67/169 52/68/170
s 16
f 58/74/171 104/122/125 103/121/128 52/68/172
f 72/89/161 97/115/100 104/122/125 58/74/171
s off
f 81/99/173 80/98/174 70/87/175 100/118/176
f 96/114/177 81/99/178 100/118/179 101/119/180
f 66/83/181 96/114/182 101/119/183 56/72/184
s 14
f 56/72/122 70/87/79 80/98/185 66/83/186
s off
f 50/66/187 49/65/188 52/68/189 51/67/190
s 2
f 38/55/37 41/61/68 45/60/72 35/56/7
s 4
f 79/96/44 65/81/137 106/124/191 105/123/192
s off
f 65/81/193 66/83/194 106/124/195
f 80/98/196 79/96/197 105/123/198
f 80/98/199 105/123/200 106/124/201 66/83/202
