# This file uses centimeters as units for non-parametric coordinates.

mtllib Can1.mtl
g default
v 0.306741 0.031145 -0.003903
v 0.257929 0.031145 -0.099702
v 0.181902 0.031145 -0.175729
v 0.086102 0.031146 -0.224542
v -0.020092 0.031145 -0.241361
v -0.126287 0.031145 -0.224542
v -0.222087 0.031145 -0.175729
v -0.298114 0.031145 -0.099702
v -0.346926 0.031145 -0.003903
v -0.363746 0.031145 0.102292
v -0.346926 0.031145 0.208487
v -0.298114 0.031145 0.304286
v -0.222087 0.031145 0.380313
v -0.126287 0.031145 0.429126
v -0.020092 0.031145 0.445945
v 0.086102 0.031145 0.429126
v 0.181902 0.031145 0.380313
v 0.257929 0.031145 0.304286
v 0.306741 0.031145 0.208487
v 0.323561 0.031145 0.102292
v 0.306741 0.305821 -0.003903
v 0.257929 0.305821 -0.099702
v 0.181902 0.305821 -0.175729
v 0.086102 0.305821 -0.224542
v -0.020092 0.305821 -0.241361
v -0.126287 0.305821 -0.224542
v -0.222087 0.305821 -0.175729
v -0.298114 0.305821 -0.099702
v -0.346926 0.305821 -0.003903
v -0.363745 0.305821 0.102292
v -0.346926 0.305821 0.208487
v -0.298114 0.305821 0.304286
v -0.222087 0.305821 0.380313
v -0.126287 0.305821 0.429126
v -0.020092 0.305821 0.445945
v 0.086102 0.305821 0.429126
v 0.181902 0.305821 0.380313
v 0.257929 0.305821 0.304286
v 0.306741 0.305821 0.208487
v 0.323561 0.305821 0.102292
v -0.020092 0.017422 0.102292
v -0.020092 0.292097 0.102292
vt 0.850116 0.999539
vt 0.799995 0.999614
vt 0.797789 0.475680
vt 0.847910 0.475604
vt 0.900237 0.999463
vt 0.898031 0.475528
vt 0.950357 0.999387
vt -0.001936 1.000830
vt -0.004142 0.476895
vt 0.048184 1.000754
vt 0.045978 0.476819
vt 0.098305 1.000678
vt 0.096099 0.476743
vt 0.148426 1.000602
vt 0.146220 0.476667
vt 0.198546 1.000525
vt 0.196341 0.476591
vt 0.248667 1.000450
vt 0.246461 0.476515
vt 0.298788 1.000374
vt 0.296582 0.476439
vt 0.348909 1.000298
vt 0.346703 0.476364
vt 0.399029 1.000222
vt 0.396823 0.476288
vt 0.449150 1.000146
vt 0.446944 0.476212
vt 0.499271 1.000070
vt 0.497065 0.476136
vt 0.549392 0.999994
vt 0.547186 0.476060
vt 0.599512 0.999918
vt 0.597306 0.475984
vt 0.649633 0.999842
vt 0.647427 0.475908
vt 0.699754 0.999767
vt 0.697548 0.475832
vt 0.749874 0.999691
vt 0.747669 0.475756
vt 0.959733 0.361984
vt 0.992262 0.298142
vt 0.948151 0.475452
vt 0.998272 0.475376
vt 0.774458 0.227373
vt 1.000478 0.999311
vt 0.909068 0.412649
vt 0.845227 0.445178
vt 0.774458 0.456387
vt 0.703689 0.445178
vt 0.639847 0.412649
vt 0.589182 0.361984
vt 0.556653 0.298142
vt 0.545444 0.227373
vt 0.556653 0.156604
vt 0.589182 0.092762
vt 0.639847 0.042097
vt 0.703689 0.009568
vt 0.774458 -0.001640
vt 0.845227 0.009568
vt 0.909068 0.042097
vt 0.959733 0.092762
vt 0.992262 0.156604
vt 1.003471 0.227373
vt 0.443864 0.300121
vt 0.412116 0.362431
vt 0.231286 0.231051
vt 0.362667 0.411880
vt 0.300357 0.443629
vt 0.231286 0.454568
vt 0.162216 0.443629
vt 0.099906 0.411880
vt 0.050457 0.362431
vt 0.018709 0.300121
vt 0.007769 0.231051
vt 0.018709 0.161980
vt 0.050457 0.099670
vt 0.099906 0.050221
vt 0.162216 0.018473
vt 0.231286 0.007533
vt 0.300357 0.018473
vt 0.362667 0.050221
vt 0.412116 0.099670
vt 0.443864 0.161980
vt 0.454804 0.231051
vn 0.809017 -0.000000 -0.587785
vn 0.951057 -0.000000 -0.309016
vn 0.951057 -0.000000 -0.309016
vn 0.809017 -0.000000 -0.587785
vn 0.587785 -0.000000 -0.809017
vn 0.587785 -0.000000 -0.809017
vn 0.309017 0.000000 -0.951057
vn 0.309017 0.000000 -0.951057
vn -0.000000 0.000000 -1.000000
vn -0.000000 0.000000 -1.000000
vn -0.309017 0.000000 -0.951057
vn -0.309017 0.000000 -0.951057
vn -0.587785 0.000000 -0.809017
vn -0.587786 0.000000 -0.809017
vn -0.809017 0.000000 -0.587785
vn -0.809017 0.000000 -0.587785
vn -0.951057 0.000000 -0.309017
vn -0.951057 0.000000 -0.309017
vn -1.000000 0.000000 -0.000000
vn -1.000000 0.000000 0.000000
vn -0.951057 0.000000 0.309017
vn -0.951057 0.000000 0.309017
vn -0.809017 0.000000 0.587786
vn -0.809017 0.000000 0.587786
vn -0.587785 0.000000 0.809017
vn -0.587785 0.000000 0.809017
vn -0.309017 -0.000000 0.951057
vn -0.309017 -0.000000 0.951057
vn 0.000000 -0.000000 1.000000
vn 0.000000 -0.000000 1.000000
vn 0.309017 -0.000000 0.951057
vn 0.309017 -0.000000 0.951057
vn 0.587786 -0.000000 0.809017
vn 0.587785 -0.000000 0.809017
vn 0.809017 0.000000 0.587785
vn 0.809017 0.000000 0.587785
vn 0.951057 -0.000000 0.309017
vn 0.951057 -0.000000 0.309017
vn 1.000000 -0.000000 0.000001
vn 1.000000 -0.000000 0.000001
vn 0.032282 -0.999204 -0.023454
vn 0.037949 -0.999204 -0.012331
vn 0.000000 -1.000000 -0.000000
vn 0.023454 -0.999204 -0.032282
vn 0.012330 -0.999204 -0.037949
vn 0.000000 -0.999204 -0.039902
vn -0.012330 -0.999204 -0.037949
vn -0.023454 -0.999204 -0.032282
vn -0.032282 -0.999204 -0.023454
vn -0.037949 -0.999204 -0.012330
vn -0.039902 -0.999204 0.000000
vn -0.037949 -0.999204 0.012330
vn -0.032282 -0.999204 0.023454
vn -0.023454 -0.999204 0.032281
vn -0.012331 -0.999204 0.037949
vn 0.000000 -0.999204 0.039902
vn 0.012330 -0.999204 0.037950
vn 0.023454 -0.999204 0.032282
vn 0.032282 -0.999204 0.023454
vn 0.037949 -0.999204 0.012330
vn 0.039902 -0.999204 -0.000000
vn -0.037949 0.999204 0.012330
vn -0.032282 0.999204 0.023454
vn 0.000000 1.000000 0.000000
vn -0.023454 0.999204 0.032282
vn -0.012330 0.999204 0.037949
vn 0.000000 0.999204 0.039902
vn 0.012330 0.999204 0.037949
vn 0.023454 0.999204 0.032282
vn 0.032282 0.999204 0.023454
vn 0.037949 0.999204 0.012330
vn 0.039902 0.999204 0.000000
vn 0.037949 0.999204 -0.012330
vn 0.032282 0.999204 -0.023454
vn 0.023454 0.999204 -0.032281
vn 0.012330 0.999204 -0.037949
vn 0.000000 0.999204 -0.039902
vn -0.012330 0.999204 -0.037949
vn -0.023454 0.999204 -0.032282
vn -0.032282 0.999204 -0.023454
vn -0.037949 0.999204 -0.012330
vn -0.039902 0.999204 0.000000
s 1
g pasted__pasted__pasted__pasted__pasted__pasted__pasted__pasted__pasted__pCylinder1 pasted__pasted__pasted__pasted__pasted__pasted__pasted__pasted__group4 pasted__pasted__pasted__pasted__pasted__pasted__pasted__group33 pasted__pasted__pasted__pasted__pasted__pasted__group34 pasted__pasted__pasted__pasted__pasted__group35 pasted__pasted__pasted__pasted__group63 pasted__pasted__pasted__group65 pasted__pasted__group69 pasted__group72 group
usemtl lambert3SG
f 22/1/1 21/2/2 1/3/3 2/4/4
f 23/5/5 22/1/1 2/4/4 3/6/6
f 24/7/7 23/5/5 3/6/6 4/42/8
f 25/45/9 24/7/7 4/42/8 5/43/10
f 26/10/11 25/8/9 5/9/10 6/11/12
f 27/12/13 26/10/11 6/11/12 7/13/14
f 28/14/15 27/12/13 7/13/14 8/15/16
f 29/16/17 28/14/15 8/15/16 9/17/18
f 30/18/19 29/16/17 9/17/18 10/19/20
f 31/20/21 30/18/19 10/19/20 11/21/22
f 32/22/23 31/20/21 11/21/22 12/23/24
f 33/24/25 32/22/23 12/23/24 13/25/26
f 34/26/27 33/24/25 13/25/26 14/27/28
f 35/28/29 34/26/27 14/27/28 15/29/30
f 36/30/31 35/28/29 15/29/30 16/31/32
f 37/32/33 36/30/31 16/31/32 17/33/34
f 38/34/35 37/32/33 17/33/34 18/35/36
f 39/36/37 38/34/35 18/35/36 19/37/38
f 40/38/39 39/36/37 19/37/38 20/39/40
f 21/2/2 40/38/39 20/39/40 1/3/3
s 2
f 2/40/41 1/41/42 41/44/43
f 3/46/44 2/40/41 41/44/43
f 4/47/45 3/46/44 41/44/43
f 5/48/46 4/47/45 41/44/43
f 6/49/47 5/48/46 41/44/43
f 7/50/48 6/49/47 41/44/43
f 8/51/49 7/50/48 41/44/43
f 9/52/50 8/51/49 41/44/43
f 10/53/51 9/52/50 41/44/43
f 11/54/52 10/53/51 41/44/43
f 12/55/53 11/54/52 41/44/43
f 13/56/54 12/55/53 41/44/43
f 14/57/55 13/56/54 41/44/43
f 15/58/56 14/57/55 41/44/43
f 16/59/57 15/58/56 41/44/43
f 17/60/58 16/59/57 41/44/43
f 18/61/59 17/60/58 41/44/43
f 19/62/60 18/61/59 41/44/43
f 20/63/61 19/62/60 41/44/43
f 1/41/42 20/63/61 41/44/43
s 3
f 21/64/62 22/65/63 42/66/64
f 22/65/63 23/67/65 42/66/64
f 23/67/65 24/68/66 42/66/64
f 24/68/66 25/69/67 42/66/64
f 25/69/67 26/70/68 42/66/64
f 26/70/68 27/71/69 42/66/64
f 27/71/69 28/72/70 42/66/64
f 28/72/70 29/73/71 42/66/64
f 29/73/71 30/74/72 42/66/64
f 30/74/72 31/75/73 42/66/64
f 31/75/73 32/76/74 42/66/64
f 32/76/74 33/77/75 42/66/64
f 33/77/75 34/78/76 42/66/64
f 34/78/76 35/79/77 42/66/64
f 35/79/77 36/80/78 42/66/64
f 36/80/78 37/81/79 42/66/64
f 37/81/79 38/82/80 42/66/64
f 38/82/80 39/83/81 42/66/64
f 39/83/81 40/84/82 42/66/64
f 40/84/82 21/64/62 42/66/64
