# This file uses centimeters as units for non-parametric coordinates.

mtllib can2.mtl
g default
v 0.373640 0.000468 -0.166355
v 0.273674 0.000468 -0.303946
v 0.126388 0.000468 -0.388982
v -0.042752 0.000468 -0.406759
v -0.204500 0.000468 -0.354204
v -0.330888 0.000468 -0.240404
v -0.400062 0.000468 -0.085036
v -0.400062 0.000468 0.085036
v -0.330888 0.000468 0.240404
v -0.204500 0.000468 0.354204
v -0.042752 0.000468 0.406759
v 0.126388 0.000468 0.388982
v 0.273674 0.000468 0.303946
v 0.373640 0.000468 0.166355
v 0.409000 0.000468 0.000000
v 0.373640 0.496468 -0.166355
v 0.273674 0.496468 -0.303946
v 0.126388 0.496468 -0.388982
v -0.042752 0.496468 -0.406759
v -0.204500 0.496468 -0.354204
v -0.330888 0.496468 -0.240404
v -0.400062 0.496468 -0.085036
v -0.400062 0.496468 0.085036
v -0.330888 0.496468 0.240404
v -0.204500 0.496468 0.354204
v -0.042752 0.496468 0.406759
v 0.126388 0.496468 0.388982
v 0.273674 0.496468 0.303946
v 0.373640 0.496468 0.166355
v 0.409000 0.496468 0.000000
v 0.000000 0.000468 0.000000
v 0.000000 0.496468 0.000000
vt 0.005648 0.512283
vt 0.005648 0.214003
vt 0.049902 0.214003
vt 0.049902 0.512283
vt 0.115104 0.214003
vt 0.115104 0.512283
vt 0.189981 0.214003
vt 0.189981 0.512283
vt 0.261585 0.214003
vt 0.261585 0.512283
vt 0.317536 0.213010
vt 0.317536 0.513276
vt 0.387233 0.212016
vt 0.387233 0.514270
vt 0.463525 0.212016
vt 0.463525 0.514270
vt 0.533222 0.212016
vt 0.533222 0.514270
vt 0.584271 0.212016
vt 0.584271 0.514270
vt 0.656830 0.212016
vt 0.656830 0.514270
vt 0.732704 0.212016
vt 0.732704 0.514270
vt 0.798775 0.212016
vt 0.798775 0.514270
vt 0.843619 0.212016
vt 0.843619 0.514270
vt 0.918244 0.212016
vt 0.918244 0.514270
vt 0.992869 0.212016
vt 0.992869 0.514270
vt 0.071448 0.945610
vt 0.024688 0.881250
vt 0.199464 0.803434
vt 0.140344 0.985387
vt 0.219462 0.993702
vt 0.295122 0.969119
vt 0.354242 0.915887
vt 0.386599 0.843211
vt 0.386599 0.763658
vt 0.354242 0.690982
vt 0.295122 0.637750
vt 0.219462 0.613166
vt 0.140344 0.621482
vt 0.071448 0.661259
vt 0.024688 0.725619
vt 0.008148 0.803434
vt 0.200656 0.799707
vt 0.380882 0.879950
vt 0.332664 0.946317
vt 0.261619 0.987334
vt 0.180034 0.995910
vt 0.102014 0.970559
vt 0.041050 0.915667
vt 0.007684 0.840725
vt 0.007684 0.758690
vt 0.041050 0.683747
vt 0.102014 0.628855
vt 0.180034 0.603505
vt 0.261619 0.612080
vt 0.332664 0.653098
vt 0.380883 0.719465
vt 0.397938 0.799707
vn 0.913545 0.000000 -0.406737
vn 0.913545 0.000000 -0.406737
vn 0.669131 0.000000 -0.743145
vn 0.669131 0.000000 -0.743145
vn 0.669131 0.000000 -0.743145
vn 0.669131 0.000000 -0.743145
vn 0.309017 0.000000 -0.951056
vn 0.309017 0.000000 -0.951056
vn 0.309017 0.000000 -0.951056
vn 0.309017 0.000000 -0.951056
vn -0.104528 0.000000 -0.994522
vn -0.104528 0.000000 -0.994522
vn -0.104528 0.000000 -0.994522
vn -0.104528 0.000000 -0.994522
vn -0.500000 0.000000 -0.866025
vn -0.500000 0.000000 -0.866025
vn -0.500000 0.000000 -0.866025
vn -0.500000 0.000000 -0.866025
vn -0.809017 0.000000 -0.587785
vn -0.809017 0.000000 -0.587785
vn -0.809017 0.000000 -0.587785
vn -0.809017 0.000000 -0.587785
vn -0.978148 0.000000 -0.207912
vn -0.978148 0.000000 -0.207912
vn -0.978148 0.000000 -0.207912
vn -0.978148 0.000000 -0.207912
vn -0.978148 0.000000 0.207912
vn -0.978148 0.000000 0.207912
vn -0.978148 0.000000 0.207912
vn -0.978148 0.000000 0.207912
vn -0.809017 0.000000 0.587785
vn -0.809017 0.000000 0.587785
vn -0.809017 0.000000 0.587785
vn -0.809017 0.000000 0.587785
vn -0.500000 0.000000 0.866025
vn -0.500000 0.000000 0.866025
vn -0.500000 0.000000 0.866025
vn -0.500000 0.000000 0.866025
vn -0.104529 0.000000 0.994522
vn -0.104529 0.000000 0.994522
vn -0.104529 0.000000 0.994522
vn -0.104529 0.000000 0.994522
vn 0.309017 0.000000 0.951057
vn 0.309017 0.000000 0.951057
vn 0.309017 0.000000 0.951057
vn 0.309017 0.000000 0.951057
vn 0.669131 0.000000 0.743145
vn 0.669131 0.000000 0.743145
vn 0.669131 0.000000 0.743145
vn 0.669131 0.000000 0.743145
vn 0.913545 0.000000 0.406737
vn 0.913545 0.000000 0.406737
vn 0.913545 0.000000 0.406737
vn 0.913545 0.000000 0.406737
vn 1.000000 0.000000 0.000000
vn 1.000000 0.000000 0.000000
vn 1.000000 0.000000 0.000000
vn 1.000000 0.000000 0.000000
vn 0.913545 0.000000 -0.406737
vn 0.913545 0.000000 -0.406737
vn 0.000000 -1.000000 0.000000
vn 0.000000 -1.000000 0.000000
vn 0.000000 -1.000000 0.000000
vn 0.000000 -1.000000 0.000000
vn 0.000000 -1.000000 0.000000
vn 0.000000 -1.000000 0.000000
vn 0.000000 -1.000000 0.000000
vn 0.000000 -1.000000 0.000000
vn 0.000000 -1.000000 0.000000
vn 0.000000 -1.000000 0.000000
vn 0.000000 -1.000000 0.000000
vn 0.000000 -1.000000 0.000000
vn 0.000000 -1.000000 0.000000
vn 0.000000 -1.000000 0.000000
vn 0.000000 -1.000000 0.000000
vn 0.000000 -1.000000 0.000000
vn 0.000000 -1.000000 0.000000
vn 0.000000 -1.000000 0.000000
vn 0.000000 -1.000000 0.000000
vn 0.000000 -1.000000 0.000000
vn 0.000000 -1.000000 0.000000
vn 0.000000 -1.000000 0.000000
vn 0.000000 -1.000000 0.000000
vn 0.000000 -1.000000 0.000000
vn 0.000000 -1.000000 0.000000
vn 0.000000 -1.000000 0.000000
vn 0.000000 -1.000000 0.000000
vn 0.000000 -1.000000 0.000000
vn 0.000000 -1.000000 0.000000
vn 0.000000 -1.000000 0.000000
vn 0.000000 -1.000000 0.000000
vn 0.000000 -1.000000 0.000000
vn 0.000000 -1.000000 0.000000
vn 0.000000 1.000000 0.000000
vn 0.000000 1.000000 0.000000
vn 0.000000 1.000000 0.000000
vn 0.000000 1.000000 0.000000
vn 0.000000 1.000000 0.000000
vn 0.000000 1.000000 0.000000
vn 0.000000 1.000000 0.000000
vn 0.000000 1.000000 0.000000
vn 0.000000 1.000000 0.000000
vn 0.000000 1.000000 0.000000
vn 0.000000 1.000000 0.000000
vn 0.000000 1.000000 0.000000
vn 0.000000 1.000000 0.000000
vn 0.000000 1.000000 0.000000
vn 0.000000 1.000000 0.000000
vn 0.000000 1.000000 0.000000
vn 0.000000 1.000000 0.000000
vn 0.000000 1.000000 0.000000
vn 0.000000 1.000000 0.000000
vn 0.000000 1.000000 0.000000
vn 0.000000 1.000000 0.000000
vn 0.000000 1.000000 0.000000
vn 0.000000 1.000000 0.000000
vn 0.000000 1.000000 0.000000
vn 0.000000 1.000000 0.000000
vn 0.000000 1.000000 0.000000
vn 0.000000 1.000000 0.000000
vn 0.000000 1.000000 0.000000
vn 0.000000 1.000000 0.000000
vn 0.000000 1.000000 0.000000
vn 0.000000 1.000000 0.000000
vn 0.000000 1.000000 0.000000
vn 0.000000 1.000000 0.000000
s off
g can2:pCylinder1
usemtl initialShadingGroup
f 16/1/1 1/2/2 2/3/3 17/4/4
f 17/4/5 2/3/6 3/5/7 18/6/8
f 18/6/9 3/5/10 4/7/11 19/8/12
f 19/8/13 4/7/14 5/9/15 20/10/16
f 20/10/17 5/9/18 6/11/19 21/12/20
f 21/12/21 6/11/22 7/13/23 22/14/24
f 22/14/25 7/13/26 8/15/27 23/16/28
f 23/16/29 8/15/30 9/17/31 24/18/32
f 24/18/33 9/17/34 10/19/35 25/20/36
f 25/20/37 10/19/38 11/21/39 26/22/40
f 26/22/41 11/21/42 12/23/43 27/24/44
f 27/24/45 12/23/46 13/25/47 28/26/48
f 28/26/49 13/25/50 14/27/51 29/28/52
f 29/28/53 14/27/54 15/29/55 30/30/56
f 30/30/57 15/29/58 1/31/59 16/32/60
f 2/33/61 1/34/62 31/35/63 3/36/64
f 4/37/65 3/36/66 31/35/67 5/38/68
f 6/39/69 5/38/70 31/35/71
f 7/40/72 6/39/73 31/35/74 8/41/75
f 9/42/76 8/41/77 31/35/78
f 10/43/79 9/42/80 31/35/81 11/44/82
f 12/45/83 11/44/84 31/35/85 13/46/86
f 14/47/87 13/46/88 31/35/89
f 15/48/90 14/47/91 31/35/92 1/34/93
f 32/49/94 16/50/95 17/51/96 18/52/97
f 32/49/98 18/52/99 19/53/100 20/54/101
f 20/54/102 21/55/103 32/49/104
f 32/49/105 21/55/106 22/56/107 23/57/108
f 23/57/109 24/58/110 32/49/111
f 32/49/112 24/58/113 25/59/114 26/60/115
f 32/49/116 26/60/117 27/61/118 28/62/119
f 28/62/120 29/63/121 32/49/122
f 32/49/123 29/63/124 30/64/125 16/50/126
