# This file uses centimeters as units for non-parametric coordinates.

mtllib cerealLump.mtl
g default
v -0.676100 -0.000000 0.808318
v 0.676100 -0.000000 0.808318
v -0.676100 1.698342 0.808318
v 0.676100 1.698342 0.808318
v -0.676100 1.698342 0.391682
v 0.676100 1.698342 0.391682
v -0.676100 -0.000000 0.391682
v 0.676100 -0.000000 0.391682
v -0.676100 -0.000000 0.008318
v 0.676100 -0.000000 0.008318
v -0.676100 1.698342 0.008318
v 0.676100 1.698342 0.008318
v -0.676100 1.698342 -0.408318
v 0.676100 1.698342 -0.408318
v -0.676100 -0.000000 -0.408318
v 0.676100 -0.000000 -0.408318
v -0.676100 -0.000000 -0.391682
v 0.676100 -0.000000 -0.391682
v -0.676100 1.698342 -0.391682
v 0.676100 1.698342 -0.391682
v -0.676100 1.698342 -0.808318
v 0.676100 1.698342 -0.808318
v -0.676100 -0.000000 -0.808318
v 0.676100 -0.000000 -0.808318
v -0.676100 -0.000000 0.408318
v 0.676100 -0.000000 0.408318
v -0.676100 1.698342 0.408318
v 0.676100 1.698342 0.408318
v -0.676100 1.698342 -0.008318
v 0.676100 1.698342 -0.008318
v -0.676100 -0.000000 -0.008318
v 0.676100 -0.000000 -0.008318
vt 0.121974 0.838578
vt 0.121974 0.279938
vt 0.495402 0.279938
vt 0.495402 0.838578
vt 0.121397 0.912718
vt 0.121397 0.841317
vt 0.492967 0.841317
vt 0.492967 0.912718
vt 0.984700 0.280843
vt 0.984700 0.838439
vt 0.607672 0.838439
vt 0.607672 0.280843
vt 0.499318 0.228359
vt 0.499318 0.277488
vt 0.123142 0.277488
vt 0.123142 0.228359
vt 0.501271 0.838828
vt 0.501271 0.259480
vt 0.602089 0.259480
vt 0.602089 0.838828
vt 0.011552 0.840716
vt 0.011552 0.261331
vt 0.120566 0.261331
vt 0.120566 0.840716
vt 0.121974 0.838578
vt 0.121974 0.279938
vt 0.495402 0.279938
vt 0.495402 0.838578
vt 0.121397 0.912718
vt 0.121397 0.841317
vt 0.492967 0.841317
vt 0.492967 0.912718
vt 0.984700 0.280843
vt 0.984700 0.838439
vt 0.607672 0.838439
vt 0.607672 0.280843
vt 0.499318 0.228359
vt 0.499318 0.277488
vt 0.123142 0.277488
vt 0.123142 0.228359
vt 0.501271 0.838828
vt 0.501271 0.259480
vt 0.602089 0.259480
vt 0.602089 0.838828
vt 0.011552 0.840716
vt 0.011552 0.261331
vt 0.120566 0.261331
vt 0.120566 0.840716
vt 0.121974 0.838578
vt 0.121974 0.279938
vt 0.495402 0.279938
vt 0.495402 0.838578
vt 0.121397 0.912718
vt 0.121397 0.841317
vt 0.492967 0.841317
vt 0.492967 0.912718
vt 0.984700 0.280843
vt 0.984700 0.838439
vt 0.607672 0.838439
vt 0.607672 0.280843
vt 0.499318 0.228359
vt 0.499318 0.277488
vt 0.123142 0.277488
vt 0.123142 0.228359
vt 0.501271 0.838828
vt 0.501271 0.259480
vt 0.602089 0.259480
vt 0.602089 0.838828
vt 0.011552 0.840716
vt 0.011552 0.261331
vt 0.120566 0.261331
vt 0.120566 0.840716
vt 0.121974 0.838578
vt 0.121974 0.279938
vt 0.495402 0.279938
vt 0.495402 0.838578
vt 0.121397 0.912718
vt 0.121397 0.841317
vt 0.492967 0.841317
vt 0.492967 0.912718
vt 0.984700 0.280843
vt 0.984700 0.838439
vt 0.607672 0.838439
vt 0.607672 0.280843
vt 0.499318 0.228359
vt 0.499318 0.277488
vt 0.123142 0.277488
vt 0.123142 0.228359
vt 0.501271 0.838828
vt 0.501271 0.259480
vt 0.602089 0.259480
vt 0.602089 0.838828
vt 0.011552 0.840716
vt 0.011552 0.261331
vt 0.120566 0.261331
vt 0.120566 0.840716
vn 0.000000 0.000000 1.000000
vn 0.000000 0.000000 1.000000
vn 0.000000 0.000000 1.000000
vn 0.000000 0.000000 1.000000
vn 0.000000 1.000000 0.000000
vn 0.000000 1.000000 0.000000
vn 0.000000 1.000000 0.000000
vn 0.000000 1.000000 0.000000
vn 0.000000 0.000000 -1.000000
vn 0.000000 0.000000 -1.000000
vn 0.000000 0.000000 -1.000000
vn 0.000000 0.000000 -1.000000
vn 0.000000 -1.000000 0.000000
vn 0.000000 -1.000000 0.000000
vn 0.000000 -1.000000 0.000000
vn 0.000000 -1.000000 0.000000
vn 1.000000 0.000000 0.000000
vn 1.000000 0.000000 0.000000
vn 1.000000 0.000000 0.000000
vn 1.000000 0.000000 0.000000
vn -1.000000 0.000000 0.000000
vn -1.000000 0.000000 0.000000
vn -1.000000 0.000000 0.000000
vn -1.000000 0.000000 0.000000
vn 0.000000 0.000000 1.000000
vn 0.000000 0.000000 1.000000
vn 0.000000 0.000000 1.000000
vn 0.000000 0.000000 1.000000
vn 0.000000 1.000000 0.000000
vn 0.000000 1.000000 0.000000
vn 0.000000 1.000000 0.000000
vn 0.000000 1.000000 0.000000
vn 0.000000 0.000000 -1.000000
vn 0.000000 0.000000 -1.000000
vn 0.000000 0.000000 -1.000000
vn 0.000000 0.000000 -1.000000
vn 0.000000 -1.000000 0.000000
vn 0.000000 -1.000000 0.000000
vn 0.000000 -1.000000 0.000000
vn 0.000000 -1.000000 0.000000
vn 1.000000 0.000000 0.000000
vn 1.000000 0.000000 0.000000
vn 1.000000 0.000000 0.000000
vn 1.000000 0.000000 0.000000
vn -1.000000 0.000000 0.000000
vn -1.000000 0.000000 0.000000
vn -1.000000 0.000000 0.000000
vn -1.000000 0.000000 0.000000
vn 0.000000 0.000000 1.000000
vn 0.000000 0.000000 1.000000
vn 0.000000 0.000000 1.000000
vn 0.000000 0.000000 1.000000
vn 0.000000 1.000000 0.000000
vn 0.000000 1.000000 0.000000
vn 0.000000 1.000000 0.000000
vn 0.000000 1.000000 0.000000
vn 0.000000 0.000000 -1.000000
vn 0.000000 0.000000 -1.000000
vn 0.000000 0.000000 -1.000000
vn 0.000000 0.000000 -1.000000
vn 0.000000 -1.000000 0.000000
vn 0.000000 -1.000000 0.000000
vn 0.000000 -1.000000 0.000000
vn 0.000000 -1.000000 0.000000
vn 1.000000 0.000000 0.000000
vn 1.000000 0.000000 0.000000
vn 1.000000 0.000000 0.000000
vn 1.000000 0.000000 0.000000
vn -1.000000 0.000000 0.000000
vn -1.000000 0.000000 0.000000
vn -1.000000 0.000000 0.000000
vn -1.000000 0.000000 0.000000
vn 0.000000 0.000000 1.000000
vn 0.000000 0.000000 1.000000
vn 0.000000 0.000000 1.000000
vn 0.000000 0.000000 1.000000
vn 0.000000 1.000000 0.000000
vn 0.000000 1.000000 0.000000
vn 0.000000 1.000000 0.000000
vn 0.000000 1.000000 0.000000
vn 0.000000 0.000000 -1.000000
vn 0.000000 0.000000 -1.000000
vn 0.000000 0.000000 -1.000000
vn 0.000000 0.000000 -1.000000
vn 0.000000 -1.000000 0.000000
vn 0.000000 -1.000000 0.000000
vn 0.000000 -1.000000 0.000000
vn 0.000000 -1.000000 0.000000
vn 1.000000 0.000000 0.000000
vn 1.000000 0.000000 0.000000
vn 1.000000 0.000000 0.000000
vn 1.000000 0.000000 0.000000
vn -1.000000 0.000000 0.000000
vn -1.000000 0.000000 0.000000
vn -1.000000 0.000000 0.000000
vn -1.000000 0.000000 0.000000
s off
g cereal2:pCube2
usemtl initialShadingGroup
f 3/1/1 1/2/2 2/3/3 4/4/4
f 5/5/5 3/6/6 4/7/7 6/8/8
f 7/9/9 5/10/10 6/11/11 8/12/12
f 1/13/13 7/14/14 8/15/15 2/16/16
f 4/17/17 2/18/18 8/19/19 6/20/20
f 5/21/21 7/22/22 1/23/23 3/24/24
f 11/25/25 9/26/26 10/27/27 12/28/28
f 13/29/29 11/30/30 12/31/31 14/32/32
f 15/33/33 13/34/34 14/35/35 16/36/36
f 9/37/37 15/38/38 16/39/39 10/40/40
f 12/41/41 10/42/42 16/43/43 14/44/44
f 13/45/45 15/46/46 9/47/47 11/48/48
f 19/49/49 17/50/50 18/51/51 20/52/52
f 21/53/53 19/54/54 20/55/55 22/56/56
f 23/57/57 21/58/58 22/59/59 24/60/60
f 17/61/61 23/62/62 24/63/63 18/64/64
f 20/65/65 18/66/66 24/67/67 22/68/68
f 21/69/69 23/70/70 17/71/71 19/72/72
f 27/73/73 25/74/74 26/75/75 28/76/76
f 29/77/77 27/78/78 28/79/79 30/80/80
f 31/81/81 29/82/82 30/83/83 32/84/84
f 25/85/85 31/86/86 32/87/87 26/88/88
f 28/89/89 26/90/90 32/91/91 30/92/92
f 29/93/93 31/94/94 25/95/95 27/96/96
