# This file uses centimeters as units for non-parametric coordinates.

mtllib cereal2.mtl
g default
v -0.676100 -0.849171 0.208318
v 0.676100 -0.849171 0.208318
v -0.676100 0.849171 0.208318
v 0.676100 0.849171 0.208318
v -0.676100 0.849171 -0.208318
v 0.676100 0.849171 -0.208318
v -0.676100 -0.849171 -0.208318
v 0.676100 -0.849171 -0.208318
vt 0.121974 0.279938
vt 0.495402 0.279938
vt 0.495402 0.838578
vt 0.121974 0.838578
vt 0.121397 0.841317
vt 0.492967 0.841317
vt 0.492967 0.912718
vt 0.121397 0.912718
vt 0.984700 0.838439
vt 0.607672 0.838439
vt 0.607672 0.280843
vt 0.984700 0.280843
vt 0.499318 0.277488
vt 0.123142 0.277488
vt 0.123142 0.228359
vt 0.499318 0.228359
vt 0.501271 0.259480
vt 0.602089 0.259480
vt 0.602089 0.838828
vt 0.501271 0.838828
vt 0.011552 0.261331
vt 0.120566 0.261331
vt 0.120566 0.840716
vt 0.011552 0.840716
vn 0.000000 0.000000 1.000000
vn 0.000000 0.000000 1.000000
vn 0.000000 0.000000 1.000000
vn 0.000000 0.000000 1.000000
vn 0.000000 1.000000 0.000000
vn 0.000000 1.000000 0.000000
vn 0.000000 1.000000 0.000000
vn 0.000000 1.000000 0.000000
vn 0.000000 0.000000 -1.000000
vn 0.000000 0.000000 -1.000000
vn 0.000000 0.000000 -1.000000
vn 0.000000 0.000000 -1.000000
vn 0.000000 -1.000000 0.000000
vn 0.000000 -1.000000 0.000000
vn 0.000000 -1.000000 0.000000
vn 0.000000 -1.000000 0.000000
vn 1.000000 0.000000 0.000000
vn 1.000000 0.000000 0.000000
vn 1.000000 0.000000 0.000000
vn 1.000000 0.000000 0.000000
vn -1.000000 0.000000 0.000000
vn -1.000000 0.000000 0.000000
vn -1.000000 0.000000 0.000000
vn -1.000000 0.000000 0.000000
s off
g pCube1
usemtl lambert3SG
f 3/4/1 1/1/2 2/2/3 4/3/4
f 5/8/5 3/5/6 4/6/7 6/7/8
f 7/12/9 5/9/10 6/10/11 8/11/12
f 1/16/13 7/13/14 8/14/15 2/15/16
f 4/20/17 2/17/18 8/18/19 6/19/20
f 5/24/21 7/21/22 1/22/23 3/23/24
