# This file uses centimeters as units for non-parametric coordinates.

mtllib packet1.mtl
g default
v -0.677923 1.115332 -0.022609
v -0.677923 0.974610 -0.396226
v -0.677923 -0.001408 -0.396226
v -0.677923 1.115332 0.022609
v -0.677923 0.974610 0.396226
v -0.677923 -0.001408 0.396226
v 0.677923 1.115332 0.022609
v 0.677923 0.974610 0.396226
v 0.677923 -0.001408 0.396226
v 0.677923 1.115332 -0.022609
v 0.677923 0.974610 -0.396226
v 0.677923 -0.001408 -0.396226
v 0.677923 1.199306 -0.022609
v -0.677923 1.199306 -0.022609
v -0.677923 1.199306 0.022609
v 0.677923 1.199306 0.022609
vt 0.144903 0.502165
vt -0.000831 0.439147
vt 0.308276 0.439147
vt 0.162541 0.502165
vt 0.815860 0.453075
vt 0.665077 0.453075
vt 0.665077 0.000254
vt 0.815860 0.000254
vt -0.001741 1.001593
vt -0.001741 0.497770
vt 0.807284 0.497770
vt 0.807284 1.001593
vt 0.456472 0.502165
vt 0.310738 0.439147
vt 0.619845 0.439147
vt 0.474110 0.502165
vt 0.811881 0.436383
vt 0.661808 0.436383
vt 0.661808 0.000669
vt 0.811881 0.000669
vt -0.000400 1.000893
vt -0.000400 0.501802
vt 0.810596 0.501802
vt 0.810596 1.000893
vt 0.646548 0.448392
vt 0.646548 0.001439
vt 0.825837 0.001439
vt 0.825837 0.448392
vt 0.945794 0.010776
vt 0.945794 0.989224
vt 0.878401 0.989224
vt 0.878401 0.010776
vt 0.998761 0.000000
vt 0.998761 1.000000
vt 0.951077 1.000000
vt 0.951077 0.000000
vt 0.952316 1.003523
vt 0.952316 0.003523
vt 1.000000 0.003523
vt 1.000000 1.003523
vt 0.997890 -0.000009
vt 0.997890 1.000009
vt 0.950342 1.000009
vt 0.950342 -0.000009
vt 0.948793 1.000001
vt 0.948793 0.000001
vt 0.996477 0.000001
vt 0.996477 1.000001
vt 0.310738 0.002064
vt 0.619845 0.002064
vt -0.000831 0.002064
vt 0.308276 0.002064
vn -1.000000 -0.000001 0.000000
vn -1.000000 -0.000001 0.000000
vn -1.000000 -0.000001 0.000000
vn -1.000000 -0.000001 0.000000
vn 0.000000 0.935821 0.352475
vn 0.000000 0.935821 0.352475
vn 0.000000 0.935821 0.352475
vn 0.000000 0.935821 0.352475
vn 0.000000 0.000000 1.000000
vn 0.000000 0.000000 1.000000
vn 0.000000 0.000000 1.000000
vn 0.000000 0.000000 1.000000
vn 1.000000 -0.000001 0.000000
vn 1.000000 -0.000001 0.000000
vn 1.000000 -0.000001 0.000000
vn 1.000000 -0.000001 0.000000
vn 0.000000 0.935821 -0.352475
vn 0.000000 0.935821 -0.352475
vn 0.000000 0.935821 -0.352475
vn 0.000000 0.935821 -0.352475
vn -0.000000 0.000000 -1.000000
vn -0.000000 0.000000 -1.000000
vn -0.000000 0.000000 -1.000000
vn -0.000000 0.000000 -1.000000
vn 0.000000 -1.000000 0.000000
vn 0.000000 -1.000000 0.000000
vn 0.000000 -1.000000 0.000000
vn 0.000000 -1.000000 0.000000
vn 0.000000 1.000000 0.000000
vn 0.000000 1.000000 0.000000
vn 0.000000 1.000000 0.000000
vn 0.000000 1.000000 0.000000
vn -0.000000 0.000000 -1.000000
vn -0.000000 0.000000 -1.000000
vn -0.000000 0.000000 -1.000000
vn -0.000000 0.000000 -1.000000
vn -1.000000 0.000000 0.000000
vn -1.000000 0.000000 0.000000
vn -1.000000 0.000000 0.000000
vn -1.000000 0.000000 0.000000
vn 0.000000 -0.000000 1.000000
vn 0.000000 -0.000000 1.000000
vn 0.000000 -0.000000 1.000000
vn 0.000000 -0.000000 1.000000
vn 1.000000 0.000000 0.000000
vn 1.000000 0.000000 0.000000
vn 1.000000 0.000000 0.000000
vn 1.000000 0.000000 0.000000
vn 1.000000 0.000001 0.000000
vn 1.000000 0.000001 0.000000
vn 1.000000 0.000001 0.000000
vn 1.000000 0.000001 0.000000
vn -1.000000 0.000001 0.000000
vn -1.000000 0.000001 0.000000
vn -1.000000 0.000001 0.000000
vn -1.000000 0.000001 0.000000
s off
g packet1:pCube1
usemtl initialShadingGroup
f 1/1/1 2/2/2 5/3/3 4/4/4
f 4/5/5 5/6/6 8/7/7 7/8/8
f 5/9/9 6/10/10 9/11/11 8/12/12
f 7/13/13 8/14/14 11/15/15 10/16/16
f 10/17/17 11/18/18 2/19/19 1/20/20
f 11/21/21 12/22/22 3/23/23 2/24/24
f 3/25/25 12/26/26 9/27/27 6/28/28
f 13/29/29 14/30/30 15/31/31 16/32/32
f 10/33/33 1/34/34 14/35/35 13/36/36
f 1/37/37 4/38/38 15/39/39 14/40/40
f 4/41/41 7/42/42 16/43/43 15/44/44
f 7/45/45 10/46/46 13/47/47 16/48/48
f 11/15/49 8/14/50 9/49/51 12/50/52
f 5/3/53 2/2/54 3/51/55 6/52/56
