# This file uses centimeters as units for non-parametric coordinates.

mtllib packet2.mtl
g default
v 0.464829 0.000000 -0.168500
v 0.464829 0.000000 0.168500
v -0.464829 0.000000 -0.168500
v -0.464829 0.000000 0.168500
v -0.367484 -0.059812 0.168500
v -0.333000 -0.081000 0.128007
v -0.333000 -0.075575 0.148254
v -0.333000 -0.060752 0.163075
v -0.333000 -0.040504 0.168500
v 0.367484 -0.059812 0.168500
v 0.333000 -0.040504 0.168500
v 0.333000 -0.060752 0.163075
v 0.333000 -0.075575 0.148254
v 0.333000 -0.081000 0.128007
v -0.367484 0.059812 0.168500
v -0.333000 0.040504 0.168500
v -0.333000 0.060752 0.163075
v -0.333000 0.075575 0.148254
v -0.333000 0.081000 0.128007
v 0.367484 0.059812 0.168500
v 0.333000 0.081000 0.128007
v 0.333000 0.075575 0.148254
v 0.333000 0.060752 0.163075
v 0.333000 0.040504 0.168500
v -0.367484 0.059812 -0.168500
v -0.333000 0.081000 -0.128007
v -0.333000 0.075575 -0.148254
v -0.333000 0.060752 -0.163075
v -0.333000 0.040504 -0.168500
v 0.367484 0.059812 -0.168500
v 0.333000 0.040504 -0.168500
v 0.333000 0.060752 -0.163075
v 0.333000 0.075575 -0.148254
v 0.333000 0.081000 -0.128007
v -0.367484 -0.059812 -0.168500
v -0.333000 -0.040504 -0.168500
v -0.333000 -0.060752 -0.163075
v -0.333000 -0.075575 -0.148254
v -0.333000 -0.081000 -0.128007
v 0.367484 -0.059812 -0.168500
v 0.333000 -0.081000 -0.128007
v 0.333000 -0.075575 -0.148254
v 0.333000 -0.060752 -0.163075
v 0.333000 -0.040504 -0.168500
vt 0.814610 0.252080
vt 0.195145 0.252080
vt 0.195145 0.146690
vt 0.814610 0.146690
vt 0.814610 0.278422
vt 0.195145 0.278422
vt 0.163071 0.121572
vt 0.163070 0.277198
vt 0.072527 0.199385
vt 0.814610 0.120348
vt 0.195145 0.120348
vt 0.846685 0.277198
vt 0.846685 0.121571
vt 0.937228 0.199385
vt 0.814610 0.297705
vt 0.195145 0.297705
vt 0.814610 0.101064
vt 0.195145 0.101064
vt 0.691741 0.638356
vt 0.327699 0.638356
vt 0.327700 0.351192
vt 0.691742 0.351192
vt 0.677487 0.661066
vt 0.341954 0.661066
vt 0.677487 0.328482
vt 0.341954 0.328482
vt 0.694860 0.683776
vt 0.324580 0.683776
vt 0.694861 0.305772
vt 0.324580 0.305772
vt 0.814259 0.254633
vt 0.189211 0.254633
vt 0.189211 0.144137
vt 0.814259 0.144137
vt 0.814259 0.282251
vt 0.189211 0.282252
vt 0.156847 0.117801
vt 0.156848 0.280969
vt 0.065489 0.199385
vt 0.814259 0.116518
vt 0.189211 0.116518
vt 0.846623 0.280969
vt 0.846623 0.117801
vt 0.937982 0.199385
vt 0.814259 0.302470
vt 0.189211 0.302470
vt 0.814259 0.096300
vt 0.189211 0.096300
vt 0.915893 0.940070
vt 0.118303 0.940070
vt 0.118303 0.718836
vt 0.915893 0.718836
vt 0.897933 0.957566
vt 0.118151 0.957566
vt 0.897933 0.701340
vt 0.118151 0.701340
vt 0.938309 0.975062
vt 0.077776 0.975062
vt 0.938308 0.683844
vt 0.077776 0.683844
vt 0.050305 0.683775
vt 0.006243 0.638355
vt 0.006244 0.351191
vt 0.050306 0.305771
vt 0.142041 0.305771
vt 0.142039 0.683775
vt 0.298069 0.305772
vt 0.969135 0.683776
vt 0.991992 0.638356
vt 0.298068 0.683775
vt 0.721372 0.683776
vt 0.991992 0.351192
vt 0.969136 0.305773
vt 0.721373 0.305772
vt 0.877401 0.305772
vt 0.877401 0.683776
vn 0.000171 -0.043444 0.999056
vn -0.000170 -0.043444 0.999056
vn -0.000170 0.043444 0.999056
vn 0.000171 0.043444 0.999056
vn -0.153787 0.987996 0.014585
vn 0.153787 0.987996 0.014585
vn 0.153787 0.987996 -0.014585
vn -0.153787 0.987996 -0.014585
vn 0.000171 0.043444 -0.999056
vn -0.000170 0.043444 -0.999056
vn -0.000170 -0.043444 -0.999056
vn 0.000171 -0.043444 -0.999056
vn -0.153787 -0.987996 -0.014585
vn 0.153787 -0.987996 -0.014585
vn 0.153787 -0.987996 0.014585
vn -0.153787 -0.987996 0.014585
vn 0.012204 -0.044084 0.998953
vn 0.012204 0.044084 0.998953
vn 0.000000 0.000000 1.000000
vn 0.523362 -0.852111 0.000173
vn 0.523362 -0.852111 -0.000173
vn 0.523509 -0.852020 0.000000
vn 0.523509 -0.852020 0.000000
vn -0.523362 0.852111 0.000173
vn -0.523362 0.852111 -0.000173
vn -0.523509 0.852020 0.000000
vn -0.523509 0.852020 0.000000
vn -0.012204 0.044084 0.998953
vn -0.012204 -0.044084 0.998953
vn 0.000000 0.000000 1.000000
vn 0.012204 0.044084 -0.998953
vn 0.012204 -0.044084 -0.998953
vn 0.000000 0.000000 -1.000000
vn 0.523362 0.852111 -0.000173
vn 0.523362 0.852111 0.000173
vn 0.523509 0.852020 0.000000
vn 0.523509 0.852020 0.000000
vn -0.523362 -0.852111 -0.000173
vn -0.523362 -0.852111 0.000173
vn -0.523509 -0.852020 0.000000
vn -0.523509 -0.852020 0.000000
vn -0.012204 -0.044084 -0.998953
vn -0.012204 0.044084 -0.998953
vn 0.000000 0.000000 -1.000000
vn 0.003092 -0.500657 0.865640
vn -0.003092 -0.500658 0.865640
vn 0.000658 -0.707080 0.707134
vn -0.000658 -0.707080 0.707134
vn -0.011416 -0.965858 0.258820
vn 0.011416 -0.965858 0.258820
vn -0.011416 0.965858 0.258820
vn 0.011416 0.965858 0.258820
vn 0.000658 0.707080 0.707134
vn 0.003092 0.500657 0.865640
vn -0.003092 0.500658 0.865640
vn -0.000658 0.707080 0.707134
vn 0.003092 0.500657 -0.865640
vn -0.003092 0.500658 -0.865640
vn 0.000658 0.707080 -0.707134
vn -0.000658 0.707080 -0.707134
vn -0.011416 0.965858 -0.258820
vn 0.011416 0.965858 -0.258820
vn -0.011416 -0.965858 -0.258820
vn 0.011416 -0.965858 -0.258820
vn 0.000658 -0.707080 -0.707134
vn 0.003092 -0.500657 -0.865640
vn -0.003092 -0.500658 -0.865640
vn -0.000658 -0.707080 -0.707134
s 1
g pCube1
usemtl lambert3SG
f 9/1/1 11/2/2 24/3/3 16/4/4
s 2
f 19/19/5 21/20/6 34/21/7 26/22/8
s 3
f 29/31/9 31/32/10 44/33/11 36/34/12
s 4
f 39/49/13 41/50/14 14/51/15 6/52/16
s 1
f 5/12/17 9/1/1 16/4/4 15/13/18 4/14/19
s 4
f 10/61/20 14/62/15 41/63/14 40/64/21 1/65/22 2/66/23
s 2
f 15/71/24 19/19/5 26/22/8 25/74/25 3/75/26 4/76/27
s 1
f 20/7/28 24/3/3 11/2/2 10/8/29 2/9/30
s 3
f 25/42/31 29/31/9 36/34/12 35/43/32 3/44/33
s 2
f 30/67/34 34/21/7 21/20/6 20/70/35 2/66/36 1/65/37
s 4
f 35/73/38 39/72/13 6/69/16 5/68/39 4/76/40 3/75/41
s 3
f 40/37/42 44/33/11 31/32/10 30/38/43 1/39/44
s 1
f 9/1/1 8/5/45 12/6/46 11/2/2
f 8/5/45 7/15/47 13/16/48 12/6/46
s 4
f 7/55/49 6/52/16 14/51/15 13/56/50
s 2
f 19/19/5 18/23/51 22/24/52 21/20/6
s 1
f 18/17/53 17/10/54 23/11/55 22/18/56
f 17/10/54 16/4/4 24/3/3 23/11/55
s 3
f 29/31/9 28/35/57 32/36/58 31/32/10
f 28/35/57 27/45/59 33/46/60 32/36/58
s 2
f 27/25/61 26/22/8 34/21/7 33/26/62
s 4
f 39/49/13 38/53/63 42/54/64 41/50/14
s 3
f 38/47/65 37/40/66 43/41/67 42/48/68
f 37/40/66 36/34/12 44/33/11 43/41/67
s 4
f 5/59/39 6/52/16 7/55/49
s 1
f 5/12/17 7/15/47 8/5/45
f 5/12/17 8/5/45 9/1/1
f 10/8/29 11/2/2 12/6/46
f 10/8/29 12/6/46 13/16/48
s 4
f 10/60/20 13/56/50 14/51/15
s 1
f 15/13/18 16/4/4 17/10/54
f 15/13/18 17/10/54 18/17/53
s 2
f 15/27/24 18/23/51 19/19/5
f 20/28/35 21/20/6 22/24/52
s 1
f 20/7/28 22/18/56 23/11/55
f 20/7/28 23/11/55 24/3/3
s 2
f 25/29/25 26/22/8 27/25/61
s 3
f 25/42/31 27/45/59 28/35/57
f 25/42/31 28/35/57 29/31/9
f 30/38/43 31/32/10 32/36/58
f 30/38/43 32/36/58 33/46/60
s 2
f 30/30/34 33/26/62 34/21/7
s 3
f 35/43/32 36/34/12 37/40/66
f 35/43/32 37/40/66 38/47/65
s 4
f 35/57/38 38/53/63 39/49/13
f 40/58/21 41/50/14 42/54/64
s 3
f 40/37/42 42/48/68 43/41/67
f 40/37/42 43/41/67 44/33/11
